<svg xmlns="http://www.w3.org/2000/svg" viewBox="0 0 23.999999 24.005691" height="24.006" width="24">
    <path d="M20.743 3.8L8.925 16.577l14.853-6.852A11.99 11.99 0 0 0 20.743 3.8M11.975 0c-1.638 0-3.198.328-4.62.921L5.769 14.284 13.693.124A12.086 12.086 0 0 0 11.975 0m11.92 10.461L9.822 18.337l13.204-1.567a11.982 11.982 0 0 0 .87-6.309M18.707 21.99a12.086 12.086 0 0 0 3.8-4.16l-12.376 2.458 8.576 1.703zM14.418.249L7.528 15.18l12.78-11.82a11.994 11.994 0 0 0-5.89-3.112M12.98 24.006a11.95 11.95 0 0 0 3.774-.945l-6.932-.823 3.158 1.768zM1.013 7.082A11.949 11.949 0 0 0 0 10.947l1.868 3.337-.855-7.202zm5.3-5.667A12.082 12.082 0 0 0 2.075 5.2l1.743 8.775 2.495-12.56z" fill="#000"/>
</svg>